<svg width="180" height="180" viewBox="0 0 180 180" xmlns="http://www.w3.org/2000/svg">
  <!-- Background for iOS (rounded corners will be added by iOS) -->
  <rect width="180" height="180" fill="#20B2AA"/>
  
  <!-- Chat bubble shape scaled for 180x180 -->
  <defs>
    <path id="bubble-shape" d="M25 25 Q25 15 35 15 L145 15 Q155 15 155 25 L155 110 Q155 120 145 120 L55 120 L35 140 Q25 150 25 140 L25 35 Q25 25 35 25 Z"/>
  </defs>
  
  <!-- Top half - Teal -->
  <clipPath id="top-half">
    <rect x="0" y="0" width="180" height="90"/>
  </clipPath>
  
  <!-- Bottom half - Yellow -->  
  <clipPath id="bottom-half">
    <rect x="0" y="90" width="180" height="90"/>
  </clipPath>
  
  <!-- Chat bubble background -->
  <use href="#bubble-shape" fill="#20B2AA" clip-path="url(#top-half)"/>
  <use href="#bubble-shape" fill="#FFD700" clip-path="url(#bottom-half)"/>
  
  <!-- Pokeball center -->
  <circle cx="90" cy="70" r="20" fill="#F5F5DC"/>
  <circle cx="90" cy="70" r="18" fill="#FFFFFF"/>
  
  <!-- Pokeball button -->
  <circle cx="90" cy="70" r="6" fill="#1e525a"/>
  <circle cx="90" cy="70" r="4" fill="#F5F5DC"/>
  
  <!-- Dividing line -->
  <rect x="25" y="88" width="130" height="4" fill="#1e525a"/>
</svg>