<svg width="96" height="96" viewBox="0 0 96 96" xmlns="http://www.w3.org/2000/svg">
  <!-- Chat bubble shape -->
  <defs>
    <path id="bubble-shape" d="M12 12 Q12 6 18 6 L78 6 Q84 6 84 12 L84 60 Q84 66 78 66 L30 66 L18 78 Q12 84 12 78 L12 18 Q12 12 18 12 Z"/>
  </defs>
  
  <!-- Top half - Teal -->
  <clipPath id="top-half">
    <rect x="0" y="0" width="96" height="48"/>
  </clipPath>
  
  <!-- Bottom half - Yellow -->
  <clipPath id="bottom-half">
    <rect x="0" y="48" width="96" height="48"/>
  </clipPath>
  
  <!-- Chat bubble background -->
  <use href="#bubble-shape" fill="#20B2AA" clip-path="url(#top-half)"/>
  <use href="#bubble-shape" fill="#FFD700" clip-path="url(#bottom-half)"/>
  
  <!-- Book/Pokedex icon in center -->
  <rect x="38" y="28" width="20" height="26" fill="#FFFFFF" opacity="0.9" rx="2"/>
  <rect x="40" y="30" width="16" height="22" fill="#1e525a" rx="1"/>
  
  <!-- Book pages lines -->
  <line x1="42" y1="34" x2="54" y2="34" stroke="#FFFFFF" stroke-width="1" opacity="0.7"/>
  <line x1="42" y1="38" x2="54" y2="38" stroke="#FFFFFF" stroke-width="1" opacity="0.7"/>
  <line x1="42" y1="42" x2="50" y2="42" stroke="#FFFFFF" stroke-width="1" opacity="0.7"/>
  
  <!-- Dividing line -->
  <rect x="12" y="46" width="72" height="3" fill="#1e525a"/>
</svg>